<svg fill="#ED6332" id="_x31_px" height="512" viewBox="0 0 24 24" width="512" xmlns="http://www.w3.org/2000/svg"><path d="m17.5 24h-1c-.827 0-1.5-.673-1.5-1.5v-3c0-.827.673-1.5 1.5-1.5h1c.827 0 1.5.673 1.5 1.5v3c0 .827-.673 1.5-1.5 1.5zm-1-5c-.275 0-.5.224-.5.5v3c0 .276.225.5.5.5h1c.275 0 .5-.224.5-.5v-3c0-.276-.225-.5-.5-.5z"/><path d="m18.5 24c-.128 0-.256-.049-.354-.146l-1-1c-.195-.195-.195-.512 0-.707s.512-.195.707 0l1 1c.195.195.195.512 0 .707-.097.097-.225.146-.353.146z"/><path d="m12.25 24h-1.75c-.276 0-.5-.224-.5-.5s.224-.5.5-.5h1.75c.413 0 .75-.336.75-.75s-.337-.75-.75-.75h-.5c-.965 0-1.75-.785-1.75-1.75s.785-1.75 1.75-1.75h1.75c.276 0 .5.224.5.5s-.224.5-.5.5h-1.75c-.413 0-.75.336-.75.75s.337.75.75.75h.5c.965 0 1.75.785 1.75 1.75s-.785 1.75-1.75 1.75z"/><path d="m23.5 24h-3c-.276 0-.5-.224-.5-.5v-5c0-.276.224-.5.5-.5s.5.224.5.5v4.5h2.5c.276 0 .5.224.5.5s-.224.5-.5.5z"/><path d="m10.14 16.32c-.101 0-.201-.03-.289-.092-1.629-1.153-3.318-1.615-5.166-1.411-.432.05-.865-.084-1.188-.373-.316-.28-.497-.683-.497-1.104v-11.75c0-.748.56-1.391 1.301-1.495 2.387-.352 4.64.311 6.699 1.982 2.058-1.671 4.315-2.333 6.703-1.981.737.103 1.297.746 1.297 1.494v11.75c0 .421-.181.824-.496 1.104-.323.288-.753.424-1.192.372-1.669-.192-3.216.169-4.716 1.107-.234.147-.543.077-.689-.159-.146-.234-.075-.542.158-.689 1.676-1.048 3.474-1.471 5.363-1.253.151.019.302-.028.412-.126.103-.091.16-.218.16-.356v-11.75c0-.252-.189-.47-.439-.505-2.253-.334-4.29.328-6.231 2.022-.189.164-.469.164-.658 0-1.943-1.694-3.976-2.355-6.229-2.023-.254.036-.443.253-.443.506v11.75c0 .138.057.265.16.357.11.098.26.145.411.126 2.081-.229 4.046.306 5.857 1.588.226.16.278.472.119.697-.097.139-.251.212-.407.212z"/><path d="m21.5 16c-.276 0-.5-.224-.5-.5v-12c0-.276-.225-.5-.5-.5h-2c-.276 0-.5-.224-.5-.5s.224-.5.5-.5h2c.827 0 1.5.673 1.5 1.5v12c0 .276-.224.5-.5.5z"/><path d="m8.5 17h-7c-.827 0-1.5-.673-1.5-1.5v-12c0-.812.669-1.485 1.491-1.5h2.009c.276 0 .5.224.5.5s-.224.5-.5.5h-2c-.271.005-.5.229-.5.5v12c0 .276.225.5.5.5h7c.276 0 .5.224.5.5s-.224.5-.5.5z"/><path d="m11 14c-.276 0-.5-.224-.5-.5v-11c0-.276.224-.5.5-.5s.5.224.5.5v11c0 .276-.224.5-.5.5z"/></svg>